# xmcd CD database file
#
# Track frame offsets:
#	150
#	34780
#	76770
#	93175
#	133360
#	151175
#
# Disc length: 2388 seconds
#
# Revision: 0
# Processed by: cddbd v1.5.2PL0 Copyright (c) Steve Scherf et al.
# Submitted via: CDex 1.51
#
DISCID=3d095206
DTITLE=Bobo Stenson - Underwear
DYEAR=1971
DGENRE=Jazz
TTITLE0=Underwear
TTITLE1=Luberon
TTITLE2=Test
TTITLE3=Tant W.
TTITLE4=Untitled
TTITLE5=Rudolf
EXTD=YEAR: 1971
EXTT0=
EXTT1=
EXTT2=
EXTT3=
EXTT4=
EXTT5=
PLAYORDER=
